<?xml version="1.0" encoding="UTF-8" standalone="no"?><svg width="100%" height="100%" viewBox="0 0 71 55" version="1.1" xmlns="http://www.w3.org/2000/svg" style="fill-rule:evenodd;clip-rule:evenodd;stroke-linejoin:round;stroke-miterlimit:2;"><g><path d="M60.105,4.898c-4.526,-2.077 -9.379,-3.606 -14.452,-4.483c-0.093,-0.016 -0.185,0.026 -0.233,0.11c-0.624,1.11 -1.315,2.558 -1.799,3.697c-5.457,-0.817 -10.887,-0.817 -16.232,-0c-0.484,-1.164 -1.2,-2.587 -1.827,-3.697c-0.048,-0.081 -0.14,-0.124 -0.233,-0.11c-5.071,0.874 -9.923,2.404 -14.451,4.483c-0.04,0.017 -0.073,0.045 -0.096,0.082c-9.204,13.751 -11.726,27.164 -10.489,40.411c0.006,0.065 0.042,0.127 0.093,0.167c6.073,4.459 11.955,7.167 17.729,8.962c0.092,0.028 0.19,-0.006 0.249,-0.082c1.365,-1.865 2.583,-3.832 3.627,-5.9c0.061,-0.121 0.002,-0.264 -0.123,-0.312c-1.931,-0.733 -3.77,-1.626 -5.539,-2.64c-0.14,-0.082 -0.151,-0.282 -0.022,-0.378c0.372,-0.279 0.744,-0.569 1.1,-0.862c0.064,-0.053 0.154,-0.065 0.229,-0.031c11.62,5.305 24.199,5.305 35.682,0c0.075,-0.036 0.165,-0.025 0.232,0.028c0.356,0.293 0.728,0.586 1.103,0.865c0.129,0.096 0.12,0.296 -0.02,0.378c-1.768,1.034 -3.607,1.907 -5.541,2.637c-0.126,0.048 -0.182,0.194 -0.12,0.315c1.066,2.065 2.283,4.032 3.624,5.897c0.056,0.079 0.157,0.113 0.249,0.085c5.801,-1.795 11.684,-4.503 17.757,-8.962c0.053,-0.04 0.087,-0.099 0.092,-0.164c1.481,-15.315 -2.479,-28.618 -10.497,-40.412c-0.02,-0.039 -0.053,-0.067 -0.093,-0.084Zm-36.378,32.427c-3.498,0 -6.381,-3.211 -6.381,-7.156c0,-3.944 2.827,-7.156 6.381,-7.156c3.582,0 6.437,3.24 6.381,7.156c-0,3.945 -2.827,7.156 -6.381,7.156Zm23.592,0c-3.498,0 -6.381,-3.211 -6.381,-7.156c0,-3.944 2.827,-7.156 6.381,-7.156c3.582,0 6.436,3.24 6.381,7.156c-0,3.945 -2.799,7.156 -6.381,7.156Z" style="fill:#5865f2;fill-rule:nonzero;"/></g></svg>