<?xml version="1.0" encoding="UTF-8" standalone="no"?><svg width="100%" height="100%" viewBox="0 0 100 16" version="1.1" xmlns="http://www.w3.org/2000/svg" style="fill-rule:evenodd;clip-rule:evenodd;stroke-linejoin:round;stroke-miterlimit:2;"><g><path d="M5.848,14.207c2.88,0 4.544,-1.744 4.544,-3.728c0,-1.68 -0.88,-2.672 -2.352,-3.264l-1.488,-0.592c-1.056,-0.416 -1.808,-0.672 -1.808,-1.328c0,-0.64 0.544,-0.992 1.424,-0.992c0.928,0 1.664,0.32 2.448,0.912l1.424,-1.792c-1.04,-1.04 -2.496,-1.568 -3.872,-1.568c-2.528,-0 -4.32,1.6 -4.32,3.6c0,1.728 1.168,2.768 2.416,3.264l1.52,0.64c1.024,0.432 1.68,0.656 1.68,1.344c0,0.64 -0.496,1.04 -1.552,1.04c-0.944,-0 -2.048,-0.496 -2.896,-1.216l-1.616,1.968c1.232,1.136 2.896,1.712 4.448,1.712Z" style="fill-rule:nonzero;"/></g><g><path d="M15.016,9.039l0.256,-1.008c0.304,-1.184 0.624,-2.576 0.912,-3.824l0.064,0c0.32,1.216 0.624,2.64 0.944,3.824l0.256,1.008l-2.432,0Zm3.664,4.944l3.008,0l-3.696,-11.904l-3.424,0l-3.696,11.904l2.912,0l0.688,-2.736l3.52,0l0.688,2.736Z" style="fill-rule:nonzero;"/></g><g><path d="M22.936,13.983l2.72,0l0,-3.952c0,-1.44 -0.24,-3.072 -0.368,-4.4l0.08,0l1.168,2.608l2.944,5.744l2.912,0l0,-11.904l-2.72,0l0,3.936c0,1.424 0.224,3.136 0.384,4.4l-0.08,0l-1.168,-2.64l-2.96,-5.696l-2.912,0l0,11.904Z" style="fill-rule:nonzero;"/></g><g><path d="M40.2,14.207c1.552,0 2.88,-0.592 3.888,-1.76l-1.504,-1.792c-0.56,0.608 -1.328,1.088 -2.272,1.088c-1.68,-0 -2.768,-1.376 -2.768,-3.744c-0,-2.32 1.264,-3.696 2.8,-3.696c0.848,-0 1.472,0.384 2.064,0.928l1.504,-1.824c-0.816,-0.832 -2.064,-1.552 -3.616,-1.552c-3.024,-0 -5.68,2.272 -5.68,6.24c0,4.032 2.56,6.112 5.584,6.112Z" style="fill-rule:nonzero;"/></g><g><path d="M47.928,13.983l2.864,0l-0,-9.536l3.232,0l0,-2.368l-9.312,-0l-0,2.368l3.216,0l-0,9.536Z" style="fill-rule:nonzero;"/></g><g><path d="M60.632,14.207c3.168,0 4.768,-1.808 4.768,-5.824l0,-6.304l-2.752,0l0,6.608c0,2.256 -0.72,3.056 -2.016,3.056c-1.312,-0 -1.984,-0.8 -1.984,-3.056l0,-6.608l-2.848,0l0,6.304c0,4.016 1.648,5.824 4.832,5.824Z" style="fill-rule:nonzero;"/></g><g><path d="M68.072,13.983l2.72,0l0,-3.952c0,-1.44 -0.24,-3.072 -0.368,-4.4l0.08,0l1.168,2.608l2.944,5.744l2.912,0l-0,-11.904l-2.72,0l-0,3.936c-0,1.424 0.224,3.136 0.384,4.4l-0.08,0l-1.168,-2.64l-2.96,-5.696l-2.912,0l-0,11.904Z" style="fill-rule:nonzero;"/></g><g><path d="M80.296,13.983l7.728,0l0,-2.4l-4.864,0l0,-2.528l3.984,0l0,-2.4l-3.984,0l0,-2.208l4.688,0l0,-2.368l-7.552,0l0,11.904Z" style="fill-rule:nonzero;"/></g><g><path d="M94.072,14.207c2.88,0 4.544,-1.744 4.544,-3.728c0,-1.68 -0.88,-2.672 -2.352,-3.264l-1.488,-0.592c-1.056,-0.416 -1.808,-0.672 -1.808,-1.328c0,-0.64 0.544,-0.992 1.424,-0.992c0.928,0 1.664,0.32 2.448,0.912l1.424,-1.792c-1.04,-1.04 -2.496,-1.568 -3.872,-1.568c-2.528,-0 -4.32,1.6 -4.32,3.6c0,1.728 1.168,2.768 2.416,3.264l1.52,0.64c1.024,0.432 1.68,0.656 1.68,1.344c0,0.64 -0.496,1.04 -1.552,1.04c-0.944,-0 -2.048,-0.496 -2.896,-1.216l-1.616,1.968c1.232,1.136 2.896,1.712 4.448,1.712Z" style="fill-rule:nonzero;"/></g></svg>