<?xml version="1.0" encoding="UTF-8" standalone="no"?><svg width="100%" height="100%" viewBox="0 0 72 72" version="1.1" xmlns="http://www.w3.org/2000/svg" style="fill-rule:evenodd;clip-rule:evenodd;stroke-linejoin:round;stroke-miterlimit:2;"><g><path d="M35.997,0.889c-19.879,-0 -35.997,16.117 -35.997,36.001c0,15.905 10.314,29.397 24.62,34.16c1.801,0.329 2.457,-0.783 2.457,-1.737c0,-0.853 -0.031,-3.119 -0.049,-6.122c-10.013,2.175 -12.126,-4.827 -12.126,-4.827c-1.637,-4.157 -3.998,-5.264 -3.998,-5.264c-3.268,-2.234 0.248,-2.19 0.248,-2.19c3.613,0.256 5.514,3.711 5.514,3.711c3.211,5.5 8.427,3.911 10.477,2.992c0.327,-2.327 1.256,-3.914 2.286,-4.813c-7.994,-0.909 -16.399,-3.998 -16.399,-17.793c0,-3.93 1.404,-7.143 3.706,-9.66c-0.371,-0.911 -1.606,-4.57 0.352,-9.528c-0,0 3.023,-0.968 9.901,3.691c2.871,-0.798 5.951,-1.198 9.012,-1.211c3.057,0.013 6.137,0.413 9.013,1.211c6.873,-4.659 9.889,-3.691 9.889,-3.691c1.965,4.958 0.73,8.617 0.358,9.528c2.308,2.517 3.702,5.73 3.702,9.66c0,13.83 -8.418,16.873 -16.438,17.764c1.293,1.111 2.444,3.308 2.444,6.667c0,4.812 -0.044,8.695 -0.044,9.875c0,0.963 0.648,2.084 2.475,1.732c14.295,-4.771 24.6,-18.254 24.6,-34.155c-0,-19.884 -16.12,-36.001 -36.003,-36.001" style="fill:#181717;"/></g></svg>