<?xml version="1.0" encoding="UTF-8" standalone="no"?>
<!DOCTYPE svg PUBLIC "-//W3C//DTD SVG 1.1//EN" "http://www.w3.org/Graphics/SVG/1.1/DTD/svg11.dtd">
<svg width="100%" height="100%" viewBox="0 0 100 16" version="1.1" xmlns="http://www.w3.org/2000/svg" xmlns:xlink="http://www.w3.org/1999/xlink" xml:space="preserve" xmlns:serif="http://www.serif.com/" style="fill-rule:evenodd;clip-rule:evenodd;stroke-linejoin:round;stroke-miterlimit:2;">
    <g transform="matrix(16,0,0,16,0.776,13.983)">
        <path d="M0.317,0.014C0.497,0.014 0.601,-0.095 0.601,-0.219C0.601,-0.324 0.546,-0.386 0.454,-0.423L0.361,-0.46C0.295,-0.486 0.248,-0.502 0.248,-0.543C0.248,-0.583 0.282,-0.605 0.337,-0.605C0.395,-0.605 0.441,-0.585 0.49,-0.548L0.579,-0.66C0.514,-0.725 0.423,-0.758 0.337,-0.758C0.179,-0.758 0.067,-0.658 0.067,-0.533C0.067,-0.425 0.14,-0.36 0.218,-0.329L0.313,-0.289C0.377,-0.262 0.418,-0.248 0.418,-0.205C0.418,-0.165 0.387,-0.14 0.321,-0.14C0.262,-0.14 0.193,-0.171 0.14,-0.216L0.039,-0.093C0.116,-0.022 0.22,0.014 0.317,0.014Z" style="fill-rule:nonzero;"/>
    </g>
    <g transform="matrix(16,0,0,16,11,13.983)">
        <path d="M0.251,-0.309L0.267,-0.372C0.286,-0.446 0.306,-0.533 0.324,-0.611L0.328,-0.611C0.348,-0.535 0.367,-0.446 0.387,-0.372L0.403,-0.309L0.251,-0.309ZM0.48,-0L0.668,-0L0.437,-0.744L0.223,-0.744L-0.008,-0L0.174,-0L0.217,-0.171L0.437,-0.171L0.48,-0Z" style="fill-rule:nonzero;"/>
    </g>
    <g transform="matrix(16,0,0,16,21.56,13.983)">
        <path d="M0.086,-0L0.256,-0L0.256,-0.247C0.256,-0.337 0.241,-0.439 0.233,-0.522L0.238,-0.522L0.311,-0.359L0.495,-0L0.677,-0L0.677,-0.744L0.507,-0.744L0.507,-0.498C0.507,-0.409 0.521,-0.302 0.531,-0.223L0.526,-0.223L0.453,-0.388L0.268,-0.744L0.086,-0.744L0.086,-0Z" style="fill-rule:nonzero;"/>
    </g>
    <g transform="matrix(16,0,0,16,33.784,13.983)">
        <path d="M0.401,0.014C0.498,0.014 0.581,-0.023 0.644,-0.096L0.55,-0.208C0.515,-0.17 0.467,-0.14 0.408,-0.14C0.303,-0.14 0.235,-0.226 0.235,-0.374C0.235,-0.519 0.314,-0.605 0.41,-0.605C0.463,-0.605 0.502,-0.581 0.539,-0.547L0.633,-0.661C0.582,-0.713 0.504,-0.758 0.407,-0.758C0.218,-0.758 0.052,-0.616 0.052,-0.368C0.052,-0.116 0.212,0.014 0.401,0.014Z" style="fill-rule:nonzero;"/>
    </g>
    <g transform="matrix(16,0,0,16,44.248,13.983)">
        <path d="M0.23,-0L0.409,-0L0.409,-0.596L0.611,-0.596L0.611,-0.744L0.029,-0.744L0.029,-0.596L0.23,-0.596L0.23,-0Z" style="fill-rule:nonzero;"/>
    </g>
    <g transform="matrix(16,0,0,16,54.488,13.983)">
        <path d="M0.384,0.014C0.582,0.014 0.682,-0.099 0.682,-0.35L0.682,-0.744L0.51,-0.744L0.51,-0.331C0.51,-0.19 0.465,-0.14 0.384,-0.14C0.302,-0.14 0.26,-0.19 0.26,-0.331L0.26,-0.744L0.082,-0.744L0.082,-0.35C0.082,-0.099 0.185,0.014 0.384,0.014Z" style="fill-rule:nonzero;"/>
    </g>
    <g transform="matrix(16,0,0,16,66.696,13.983)">
        <path d="M0.086,-0L0.256,-0L0.256,-0.247C0.256,-0.337 0.241,-0.439 0.233,-0.522L0.238,-0.522L0.311,-0.359L0.495,-0L0.677,-0L0.677,-0.744L0.507,-0.744L0.507,-0.498C0.507,-0.409 0.521,-0.302 0.531,-0.223L0.526,-0.223L0.453,-0.388L0.268,-0.744L0.086,-0.744L0.086,-0Z" style="fill-rule:nonzero;"/>
    </g>
    <g transform="matrix(16,0,0,16,78.92,13.983)">
        <path d="M0.086,-0L0.569,-0L0.569,-0.15L0.265,-0.15L0.265,-0.308L0.514,-0.308L0.514,-0.458L0.265,-0.458L0.265,-0.596L0.558,-0.596L0.558,-0.744L0.086,-0.744L0.086,-0Z" style="fill-rule:nonzero;"/>
    </g>
    <g transform="matrix(16,0,0,16,89,13.983)">
        <path d="M0.317,0.014C0.497,0.014 0.601,-0.095 0.601,-0.219C0.601,-0.324 0.546,-0.386 0.454,-0.423L0.361,-0.46C0.295,-0.486 0.248,-0.502 0.248,-0.543C0.248,-0.583 0.282,-0.605 0.337,-0.605C0.395,-0.605 0.441,-0.585 0.49,-0.548L0.579,-0.66C0.514,-0.725 0.423,-0.758 0.337,-0.758C0.179,-0.758 0.067,-0.658 0.067,-0.533C0.067,-0.425 0.14,-0.36 0.218,-0.329L0.313,-0.289C0.377,-0.262 0.418,-0.248 0.418,-0.205C0.418,-0.165 0.387,-0.14 0.321,-0.14C0.262,-0.14 0.193,-0.171 0.14,-0.216L0.039,-0.093C0.116,-0.022 0.22,0.014 0.317,0.014Z" style="fill-rule:nonzero;"/>
    </g>
</svg>
