<?xml version="1.0" encoding="UTF-8" standalone="no"?>
<!DOCTYPE svg PUBLIC "-//W3C//DTD SVG 1.1//EN" "http://www.w3.org/Graphics/SVG/1.1/DTD/svg11.dtd">
<svg width="100%" height="100%" viewBox="0 0 48 27" version="1.1" xmlns="http://www.w3.org/2000/svg" xmlns:xlink="http://www.w3.org/1999/xlink" xml:space="preserve" xmlns:serif="http://www.serif.com/" style="fill-rule:evenodd;clip-rule:evenodd;stroke-linejoin:round;stroke-miterlimit:2;">
    <g transform="matrix(1,0,0,1,-301,-469)">
        <g>
            <path d="M301,491.153C301,491.757 301.216,492.213 301.648,492.523C302.08,492.833 302.541,492.942 303.033,492.851C303.494,492.761 303.818,492.595 304.004,492.353C304.19,492.112 304.283,491.711 304.283,491.153L304.283,484.584C304.283,484.116 304.123,483.719 303.803,483.395C303.483,483.07 303.092,482.908 302.631,482.908C302.184,482.908 301.8,483.07 301.48,483.395C301.16,483.719 301,484.116 301,484.584L301,491.153ZM306.137,493.961C306.137,494.399 306.29,494.728 306.595,494.947C306.9,495.166 307.291,495.275 307.768,495.275C308.259,495.275 308.657,495.166 308.963,494.947C309.268,494.728 309.421,494.399 309.421,493.961L309.421,478.649C309.421,478.196 309.261,477.807 308.94,477.483C308.62,477.158 308.229,476.996 307.768,476.996C307.321,476.996 306.938,477.158 306.617,477.483C306.297,477.807 306.137,478.196 306.137,478.649L306.137,493.961ZM311.252,494.686C311.252,495.124 311.409,495.453 311.721,495.672C312.034,495.89 312.436,496 312.927,496C313.404,496 313.795,495.89 314.1,495.672C314.405,495.453 314.558,495.124 314.558,494.686L314.558,480.711C314.558,480.242 314.398,479.842 314.078,479.51C313.758,479.178 313.374,479.012 312.927,479.012C312.466,479.012 312.071,479.178 311.744,479.51C311.416,479.842 311.252,480.242 311.252,480.711L311.252,494.686L311.252,494.686ZM316.389,494.754C316.389,495.585 316.94,496 318.042,496C319.144,496 319.695,495.585 319.695,494.754L319.695,472.103C319.695,470.835 319.315,470.117 318.556,469.951C318.065,469.831 317.581,469.974 317.104,470.382C316.628,470.789 316.389,471.363 316.389,472.103L316.389,494.754L316.389,494.754ZM321.616,495.411L321.616,470.767C321.616,469.982 321.847,469.513 322.309,469.362C323.306,469.121 324.296,469 325.279,469C327.557,469 329.679,469.544 331.645,470.631C333.611,471.718 335.2,473.202 336.414,475.082C337.627,476.962 338.331,479.034 338.524,481.3C339.433,480.907 340.401,480.711 341.428,480.711C343.513,480.711 345.296,481.458 346.778,482.953C348.259,484.448 349,486.245 349,488.344C349,490.458 348.259,492.263 346.778,493.758C345.296,495.253 343.52,496 341.45,496L322.018,495.977C321.884,495.932 321.784,495.849 321.717,495.728C321.65,495.607 321.616,495.502 321.616,495.411Z" style="fill:rgb(255,67,0);"/>
        </g>
    </g>
</svg>
