<?xml version="1.0" encoding="UTF-8" standalone="no"?><svg width="100%" height="100%" viewBox="0 0 48 40" version="1.1" xmlns="http://www.w3.org/2000/svg" style="fill-rule:evenodd;clip-rule:evenodd;stroke-linejoin:round;stroke-miterlimit:2;"><g><g><path d="M48,4.735c-1.764,0.803 -3.663,1.347 -5.655,1.589c2.035,-1.248 3.595,-3.227 4.331,-5.584c-1.905,1.155 -4.009,1.996 -6.258,2.447c-1.791,-1.962 -4.352,-3.187 -7.187,-3.187c-5.435,0 -9.844,4.521 -9.844,10.098c0,0.791 0.085,1.56 0.254,2.299c-8.185,-0.422 -15.44,-4.437 -20.3,-10.554c-0.848,1.497 -1.332,3.233 -1.332,5.082c0,3.502 1.738,6.593 4.381,8.405c-1.612,-0.049 -3.133,-0.509 -4.463,-1.26l0,0.124c0,4.894 3.395,8.977 7.903,9.901c-0.826,0.237 -1.696,0.356 -2.595,0.356c-0.634,-0 -1.254,-0.061 -1.854,-0.179c1.254,4.01 4.888,6.931 9.199,7.009c-3.37,2.71 -7.618,4.325 -12.23,4.325c-0.795,-0 -1.581,-0.047 -2.35,-0.139c4.359,2.86 9.537,4.533 15.096,4.533c18.115,0 28.019,-15.385 28.019,-28.73c0,-0.439 -0.009,-0.878 -0.026,-1.308c1.925,-1.425 3.595,-3.201 4.911,-5.227" style="fill:#00aaec;"/></g></g></svg>