<?xml version="1.0" encoding="UTF-8" standalone="no"?>
<!DOCTYPE svg PUBLIC "-//W3C//DTD SVG 1.1//EN" "http://www.w3.org/Graphics/SVG/1.1/DTD/svg11.dtd">
<svg width="100%" height="100%" viewBox="0 0 48 40" version="1.1" xmlns="http://www.w3.org/2000/svg" xmlns:xlink="http://www.w3.org/1999/xlink" xml:space="preserve" xmlns:serif="http://www.serif.com/" style="fill-rule:evenodd;clip-rule:evenodd;stroke-linejoin:round;stroke-miterlimit:2;">
    <g transform="matrix(1,0,0,1,-300,-164)">
        <g>
            <path d="M348,168.735C346.236,169.538 344.337,170.082 342.345,170.324C344.38,169.076 345.94,167.097 346.676,164.74C344.771,165.895 342.667,166.736 340.418,167.187C338.627,165.225 336.066,164 333.231,164C327.796,164 323.387,168.521 323.387,174.098C323.387,174.889 323.472,175.658 323.641,176.397C315.456,175.975 308.201,171.96 303.341,165.843C302.493,167.34 302.009,169.076 302.009,170.925C302.009,174.427 303.747,177.518 306.39,179.33C304.778,179.281 303.257,178.821 301.927,178.07L301.927,178.194C301.927,183.088 305.322,187.171 309.83,188.095C309.004,188.332 308.134,188.451 307.235,188.451C306.601,188.451 305.981,188.39 305.381,188.272C306.635,192.282 310.269,195.203 314.58,195.281C311.21,197.991 306.962,199.606 302.35,199.606C301.555,199.606 300.769,199.559 300,199.467C304.359,202.327 309.537,204 315.096,204C333.211,204 343.115,188.615 343.115,175.27C343.115,174.831 343.106,174.392 343.089,173.962C345.014,172.537 346.684,170.761 348,168.735" style="fill:rgb(0,170,236);"/>
        </g>
    </g>
</svg>
