<?xml version="1.0" encoding="UTF-8" standalone="no"?>
<!DOCTYPE svg PUBLIC "-//W3C//DTD SVG 1.1//EN" "http://www.w3.org/Graphics/SVG/1.1/DTD/svg11.dtd">
<svg width="100%" height="100%" viewBox="0 0 48 34" version="1.1" xmlns="http://www.w3.org/2000/svg" xmlns:xlink="http://www.w3.org/1999/xlink" xml:space="preserve" xmlns:serif="http://www.serif.com/" style="fill-rule:evenodd;clip-rule:evenodd;stroke-linejoin:round;stroke-miterlimit:2;">
    <g transform="matrix(1,0,0,1,-200,-368)">
        <g>
            <path d="M219.044,391.27L219.042,377.688L232.012,384.502L219.044,391.27ZM247.52,375.334C247.52,375.334 247.051,372.003 245.612,370.536C243.786,368.61 241.741,368.601 240.803,368.489C234.086,368 224.011,368 224.011,368L223.99,368C223.99,368 213.914,368 207.197,368.489C206.258,368.601 204.214,368.61 202.387,370.536C200.948,372.003 200.48,375.334 200.48,375.334C200.48,375.334 200,379.247 200,383.158L200,386.826C200,390.738 200.48,394.649 200.48,394.649C200.48,394.649 200.948,397.98 202.387,399.447C204.214,401.373 206.612,401.313 207.68,401.514C211.52,401.885 224,402 224,402C224,402 234.086,401.985 240.803,401.495C241.741,401.382 243.786,401.373 245.612,399.447C247.051,397.98 247.52,394.649 247.52,394.649C247.52,394.649 248,390.738 248,386.826L248,383.158C248,379.247 247.52,375.334 247.52,375.334Z" style="fill:rgb(206,19,18);"/>
        </g>
    </g>
</svg>
