<?xml version="1.0" encoding="UTF-8" standalone="no"?><svg width="100%" height="100%" viewBox="0 0 48 34" version="1.1" xmlns="http://www.w3.org/2000/svg" style="fill-rule:evenodd;clip-rule:evenodd;stroke-linejoin:round;stroke-miterlimit:2;"><g><g><path d="M19.044,23.27l-0.002,-13.582l12.97,6.814l-12.968,6.768Zm28.476,-15.936c0,0 -0.469,-3.331 -1.908,-4.798c-1.826,-1.926 -3.871,-1.935 -4.809,-2.047c-6.717,-0.489 -16.792,-0.489 -16.792,-0.489l-0.021,0c0,0 -10.076,0 -16.793,0.489c-0.939,0.112 -2.983,0.121 -4.81,2.047c-1.439,1.467 -1.907,4.798 -1.907,4.798c-0,0 -0.48,3.913 -0.48,7.824l0,3.668c0,3.912 0.48,7.823 0.48,7.823c-0,0 0.468,3.331 1.907,4.798c1.827,1.926 4.225,1.866 5.293,2.067c3.84,0.371 16.32,0.486 16.32,0.486c0,0 10.086,-0.015 16.803,-0.505c0.938,-0.113 2.983,-0.122 4.809,-2.048c1.439,-1.467 1.908,-4.798 1.908,-4.798c0,0 0.48,-3.911 0.48,-7.823l0,-3.668c0,-3.911 -0.48,-7.824 -0.48,-7.824Z" style="fill:#ce1312;"/></g></g></svg>