<?xml version="1.0" encoding="UTF-8" standalone="no"?><svg width="100%" height="100%" viewBox="0 0 48 27" version="1.1" xmlns="http://www.w3.org/2000/svg" style="fill-rule:evenodd;clip-rule:evenodd;stroke-linejoin:round;stroke-miterlimit:2;"><g><g><path d="M0,22.153c0,0.604 0.216,1.06 0.648,1.37c0.432,0.31 0.893,0.419 1.385,0.328c0.461,-0.09 0.785,-0.256 0.971,-0.498c0.186,-0.241 0.279,-0.642 0.279,-1.2l0,-6.569c0,-0.468 -0.16,-0.865 -0.48,-1.189c-0.32,-0.325 -0.711,-0.487 -1.172,-0.487c-0.447,0 -0.831,0.162 -1.151,0.487c-0.32,0.324 -0.48,0.721 -0.48,1.189l0,6.569Zm5.137,2.808c0,0.438 0.153,0.767 0.458,0.986c0.305,0.219 0.696,0.328 1.173,0.328c0.491,-0 0.889,-0.109 1.195,-0.328c0.305,-0.219 0.458,-0.548 0.458,-0.986l-0,-15.312c-0,-0.453 -0.16,-0.842 -0.481,-1.166c-0.32,-0.325 -0.711,-0.487 -1.172,-0.487c-0.447,-0 -0.83,0.162 -1.151,0.487c-0.32,0.324 -0.48,0.713 -0.48,1.166l-0,15.312Zm5.115,0.725c0,0.438 0.157,0.767 0.469,0.986c0.313,0.218 0.715,0.328 1.206,0.328c0.477,0 0.868,-0.11 1.173,-0.328c0.305,-0.219 0.458,-0.548 0.458,-0.986l-0,-13.975c-0,-0.469 -0.16,-0.869 -0.48,-1.201c-0.32,-0.332 -0.704,-0.498 -1.151,-0.498c-0.461,0 -0.856,0.166 -1.183,0.498c-0.328,0.332 -0.492,0.732 -0.492,1.201l0,13.975Zm5.137,0.068c0,0.831 0.551,1.246 1.653,1.246c1.102,0 1.653,-0.415 1.653,-1.246l-0,-22.651c-0,-1.268 -0.38,-1.986 -1.139,-2.152c-0.491,-0.12 -0.975,0.023 -1.452,0.431c-0.476,0.407 -0.715,0.981 -0.715,1.721l0,22.651Zm5.227,0.657l-0,-24.644c-0,-0.785 0.231,-1.254 0.693,-1.405c0.997,-0.241 1.987,-0.362 2.97,-0.362c2.278,0 4.4,0.544 6.366,1.631c1.966,1.087 3.555,2.571 4.769,4.451c1.213,1.88 1.917,3.952 2.11,6.218c0.909,-0.393 1.877,-0.589 2.904,-0.589c2.085,0 3.868,0.747 5.35,2.242c1.481,1.495 2.222,3.292 2.222,5.391c0,2.114 -0.741,3.919 -2.222,5.414c-1.482,1.495 -3.258,2.242 -5.328,2.242l-19.432,-0.023c-0.134,-0.045 -0.234,-0.128 -0.301,-0.249c-0.067,-0.121 -0.101,-0.226 -0.101,-0.317Z" style="fill:#ff4300;"/></g></g></svg>